<?xml version="1.0" ?><svg fill="none" height="1024" viewBox="0 0 1024 1024" width="1024" xmlns="http://www.w3.org/2000/svg"><rect fill="white" height="690" rx="100" width="690" x="167" y="167"/><g filter="url(#filter0_diii_1_143)"><path d="M512 737C636.256 737 737 636.256 737 512C737 387.744 636.256 287 512 287C387.744 287 287 387.744 287 512C287 636.256 387.744 737 512 737ZM415.4 615.688C411.837 621.369 405.744 624.5 399.481 624.5C396.087 624.5 392.656 623.581 389.562 621.65C380.769 616.156 378.106 604.587 383.6 595.812L388.662 587.712C391.906 587.3 395.412 587 399.5 587C410.825 587 420.219 590.581 428.113 595.344L415.4 615.688ZM399.5 568.25C389.15 568.25 380.75 559.85 380.75 549.5C380.75 539.15 389.15 530.75 399.5 530.75H424.269L489.894 425.75L467.975 390.687C462.5 381.912 465.163 370.344 473.938 364.85C482.712 359.375 494.281 362.056 499.775 370.812L512 390.369L524.225 370.812C529.719 362.019 541.288 359.338 550.062 364.85C558.856 370.344 561.519 381.912 556.025 390.687L468.481 530.75H528.238C533.019 534.181 538.306 539.506 543.894 548.394C548.037 554.975 550.062 561.688 551.188 568.25H399.5ZM640.4 595.812C645.875 604.587 643.212 616.156 634.438 621.65C631.344 623.581 627.912 624.5 624.519 624.5C618.275 624.5 612.163 621.369 608.6 615.688L523.85 480.087C525.35 476.356 527.281 472.344 530.15 467.769C535.344 459.5 542 453.744 549.031 449.619L599.731 530.75H624.5C634.85 530.75 643.25 539.15 643.25 549.5C643.25 559.85 634.85 568.25 624.5 568.25H623.169L640.4 595.812Z" fill="#0080FF"/><path d="M512 737C636.256 737 737 636.256 737 512C737 387.744 636.256 287 512 287C387.744 287 287 387.744 287 512C287 636.256 387.744 737 512 737ZM415.4 615.688C411.837 621.369 405.744 624.5 399.481 624.5C396.087 624.5 392.656 623.581 389.562 621.65C380.769 616.156 378.106 604.587 383.6 595.812L388.662 587.712C391.906 587.3 395.412 587 399.5 587C410.825 587 420.219 590.581 428.113 595.344L415.4 615.688ZM399.5 568.25C389.15 568.25 380.75 559.85 380.75 549.5C380.75 539.15 389.15 530.75 399.5 530.75H424.269L489.894 425.75L467.975 390.687C462.5 381.912 465.163 370.344 473.938 364.85C482.712 359.375 494.281 362.056 499.775 370.812L512 390.369L524.225 370.812C529.719 362.019 541.288 359.338 550.062 364.85C558.856 370.344 561.519 381.912 556.025 390.687L468.481 530.75H528.238C533.019 534.181 538.306 539.506 543.894 548.394C548.037 554.975 550.062 561.688 551.188 568.25H399.5ZM640.4 595.812C645.875 604.587 643.212 616.156 634.438 621.65C631.344 623.581 627.912 624.5 624.519 624.5C618.275 624.5 612.163 621.369 608.6 615.688L523.85 480.087C525.35 476.356 527.281 472.344 530.15 467.769C535.344 459.5 542 453.744 549.031 449.619L599.731 530.75H624.5C634.85 530.75 643.25 539.15 643.25 549.5C643.25 559.85 634.85 568.25 624.5 568.25H623.169L640.4 595.812Z" fill="url(#paint0_linear_1_143)"/><path d="M512 737C636.256 737 737 636.256 737 512C737 387.744 636.256 287 512 287C387.744 287 287 387.744 287 512C287 636.256 387.744 737 512 737ZM415.4 615.688C411.837 621.369 405.744 624.5 399.481 624.5C396.087 624.5 392.656 623.581 389.562 621.65C380.769 616.156 378.106 604.587 383.6 595.812L388.662 587.712C391.906 587.3 395.412 587 399.5 587C410.825 587 420.219 590.581 428.113 595.344L415.4 615.688ZM399.5 568.25C389.15 568.25 380.75 559.85 380.75 549.5C380.75 539.15 389.15 530.75 399.5 530.75H424.269L489.894 425.75L467.975 390.687C462.5 381.912 465.163 370.344 473.938 364.85C482.712 359.375 494.281 362.056 499.775 370.812L512 390.369L524.225 370.812C529.719 362.019 541.288 359.338 550.062 364.85C558.856 370.344 561.519 381.912 556.025 390.687L468.481 530.75H528.238C533.019 534.181 538.306 539.506 543.894 548.394C548.037 554.975 550.062 561.688 551.188 568.25H399.5ZM640.4 595.812C645.875 604.587 643.212 616.156 634.438 621.65C631.344 623.581 627.912 624.5 624.519 624.5C618.275 624.5 612.163 621.369 608.6 615.688L523.85 480.087C525.35 476.356 527.281 472.344 530.15 467.769C535.344 459.5 542 453.744 549.031 449.619L599.731 530.75H624.5C634.85 530.75 643.25 539.15 643.25 549.5C643.25 559.85 634.85 568.25 624.5 568.25H623.169L640.4 595.812Z" fill="url(#paint1_linear_1_143)" fill-opacity="0.7"/></g><defs><filter color-interpolation-filters="sRGB" filterUnits="userSpaceOnUse" height="493.462" id="filter0_diii_1_143" width="490" x="267" y="277"><feFlood flood-opacity="0" result="BackgroundImageFix"/><feColorMatrix in="SourceAlpha" result="hardAlpha" type="matrix" values="0 0 0 0 0 0 0 0 0 0 0 0 0 0 0 0 0 0 127 0"/><feOffset dy="13.4624"/><feGaussianBlur stdDeviation="10"/><feColorMatrix type="matrix" values="0 0 0 0 0 0 0 0 0 0.501961 0 0 0 0 1 0 0 0 0.6 0"/><feBlend in2="BackgroundImageFix" mode="normal" result="effect1_dropShadow_1_143"/><feBlend in="SourceGraphic" in2="effect1_dropShadow_1_143" mode="normal" result="shape"/><feColorMatrix in="SourceAlpha" result="hardAlpha" type="matrix" values="0 0 0 0 0 0 0 0 0 0 0 0 0 0 0 0 0 0 127 0"/><feOffset dy="20.19"/><feGaussianBlur stdDeviation="45"/><feComposite in2="hardAlpha" k2="-1" k3="1" operator="arithmetic"/><feColorMatrix type="matrix" values="0 0 0 0 0 0 0 0 0 0.501961 0 0 0 0 1 0 0 0 0.6 0"/><feBlend in2="shape" mode="normal" result="effect2_innerShadow_1_143"/><feColorMatrix in="SourceAlpha" result="hardAlpha" type="matrix" values="0 0 0 0 0 0 0 0 0 0 0 0 0 0 0 0 0 0 127 0"/><feOffset dy="15"/><feGaussianBlur stdDeviation="6.5"/><feComposite in2="hardAlpha" k2="-1" k3="1" operator="arithmetic"/><feColorMatrix type="matrix" values="0 0 0 0 1 0 0 0 0 1 0 0 0 0 1 0 0 0 0.3 0"/><feBlend in2="effect2_innerShadow_1_143" mode="normal" result="effect3_innerShadow_1_143"/><feColorMatrix in="SourceAlpha" result="hardAlpha" type="matrix" values="0 0 0 0 0 0 0 0 0 0 0 0 0 0 0 0 0 0 127 0"/><feOffset dy="-10"/><feGaussianBlur stdDeviation="7"/><feComposite in2="hardAlpha" k2="-1" k3="1" operator="arithmetic"/><feColorMatrix type="matrix" values="0 0 0 0 1 0 0 0 0 1 0 0 0 0 1 0 0 0 0.25 0"/><feBlend in2="effect3_innerShadow_1_143" mode="normal" result="effect4_innerShadow_1_143"/></filter><linearGradient gradientUnits="userSpaceOnUse" id="paint0_linear_1_143" x1="512.345" x2="512.345" y1="125.393" y2="637"><stop offset="0.00520833" stop-color="white" stop-opacity="0.08"/><stop offset="0.0851933" stop-opacity="0.08"/><stop offset="0.336988" stop-color="white" stop-opacity="0.1"/><stop offset="0.660917" stop-color="white" stop-opacity="0.1"/><stop offset="1" stop-opacity="0.1"/></linearGradient><linearGradient gradientUnits="userSpaceOnUse" id="paint1_linear_1_143" x1="512" x2="512" y1="287" y2="737"><stop stop-color="#0080FF"/><stop offset="1" stop-color="white" stop-opacity="0"/></linearGradient></defs></svg>